<svg xmlns="http://www.w3.org/2000/svg" viewBox="0 0 480 270">
  <defs>
    <linearGradient id="bg" x1="0" y1="0" x2="1" y2="1">
      <stop offset="0" stop-color="#fbeef1"/>
      <stop offset="1" stop-color="#1a0c12"/>
    </linearGradient>
    <radialGradient id="glow" cx="0.5" cy="0.35" r="0.55">
      <stop offset="0" stop-color="#ffffff" stop-opacity="0.5"/>
      <stop offset="1" stop-color="#ffffff" stop-opacity="0"/>
    </radialGradient>
  </defs>
  <rect width="480" height="270" rx="24" fill="url(#bg)"/>
  <rect width="480" height="270" rx="24" fill="url(#glow)"/>
  <g transform="translate(240 96)">
    <g transform="translate(-48 -48)"><svg viewBox="0 0 96 96" xmlns="http://www.w3.org/2000/svg" aria-hidden="true">
  <defs><linearGradient id="snpr" x1="0" y1="0" x2="1" y2="1"><stop offset="0" stop-color="#3a121c"/><stop offset="1" stop-color="#150a10"/></linearGradient></defs>
  <rect width="96" height="96" rx="20" fill="url(#snpr)"/>
  <g fill="#c2284b"><circle cx="48" cy="40" r="15"/><circle cx="37" cy="50" r="10"/><circle cx="59" cy="50" r="10"/></g>
  <path d="M48 26c-7-8-15-4-17 2 7 2 13 6 17 11 4-5 10-9 17-11-2-6-10-10-17-2z" fill="#e8a0b0"/>
  <path d="M40 62l8-10 8 10-2.4 6h-11.2z" fill="#d4af37"/>
  <path d="M48 74l-3 6h6z" fill="#7c1f33"/>
</svg></g>
  </g>
  <text x="240" y="196" text-anchor="middle" font-family="'Segoe UI','Microsoft YaHei',sans-serif" font-size="26" font-weight="700" fill="#ffffff" text-shadow="0 2px 8px rgba(0,0,0,.45)">绯月 · 蔷薇千金</text>
  <text x="240" y="222" text-anchor="middle" font-family="'Segoe UI',sans-serif" font-size="15" fill="#ffffff" opacity="0.85">Scarlet Noir</text>
  <text x="240" y="252" text-anchor="middle" font-family="'Segoe UI','Microsoft YaHei',sans-serif" font-size="12" fill="#ffffff" opacity="0.75">0928OYX · CC BY-NC-SA 4.0 · 免费皮肤</text>
</svg>