<svg xmlns="http://www.w3.org/2000/svg" viewBox="0 0 960 540" font-family="Segoe UI, Microsoft YaHei, sans-serif">
<defs><radialGradient id="glow" cx="0.5" cy="0.25" r="0.6"><stop offset="0" stop-color="#ffffff" stop-opacity="0.5"/><stop offset="1" stop-color="#ffffff" stop-opacity="0"/></radialGradient></defs>
<rect width="960" height="540" fill="#f0f7fc"/>
<rect width="960" height="540" fill="url(#glow)"/>
<rect width="200" height="540" fill="#f2f9fe"/>
<rect x="200" y="0" width="1.5" height="540" fill="#4ea8de" opacity="0.35"/>
<circle cx="34" cy="36" r="14" fill="#4ea8de"/>
<text x="34" y="41" text-anchor="middle" font-size="13" font-weight="700" fill="#ffffff">DSH</text>
<text x="60" y="41" font-size="15" font-weight="600" fill="#1d3550">DeepSeek Harness</text>
<rect x="12" y="78" width="176" height="34" rx="10" fill="#dff0fb"/>
<text x="28" y="101" font-size="13" fill="#4ea8de" font-weight="600">会话</text>
<text x="28" y="143" font-size="13" fill="#4a6a88" font-weight="400">工作区</text>
<text x="28" y="185" font-size="13" fill="#4a6a88" font-weight="400">模型</text>
<text x="28" y="227" font-size="13" fill="#4a6a88" font-weight="400">皮肤</text>
<text x="28" y="269" font-size="13" fill="#4a6a88" font-weight="400">插件</text>
<rect x="200" y="0" width="760" height="56" fill="#ffffff" opacity="0.7"/>
<rect x="200" y="54.5" width="760" height="1.5" fill="#4ea8de" opacity="0.35"/>
<text x="228" y="35" font-size="16" font-weight="600" fill="#1d3550">凛霜 · 苍雪剑姬 · DeepSeek Harness</text>
<text x="228" y="52" font-size="11" fill="#7d99b4">Azure Blade · 0928OYX</text>
<text x="228" y="86" font-size="11" fill="#7d99b4">今天 09:41</text>
<rect x="230" y="104" width="420" height="58" rx="14" fill="#ffffff" stroke="#4ea8de" stroke-opacity="0.45"/>
<text x="244" y="130" font-size="12.5" fill="#1d3550">你好，今天想聊点什么？你可以问我任何问题。</text>
<rect x="640" y="176" width="290" height="50" rx="14" fill="#dff0fb" stroke="#4ea8de" stroke-opacity="0.45"/>
<text x="654" y="202" font-size="12.5" fill="#1d3550">帮我把界面皮肤调成这个主题吧 ~</text>
<rect x="230" y="246" width="380" height="58" rx="14" fill="#ffffff" stroke="#4ea8de" stroke-opacity="0.45"/>
<text x="244" y="272" font-size="12.5" fill="#1d3550">好的，皮肤已经应用：凛霜 · 苍雪剑姬，背景与按钮配色已同步切换。</text>
<rect x="620" y="318" width="310" height="50" rx="14" fill="#dff0fb" stroke="#4ea8de" stroke-opacity="0.45"/>
<text x="634" y="344" font-size="12.5" fill="#1d3550">很好看，谢谢你！</text>
<rect x="230" y="392" width="560" height="46" rx="14" fill="#ffffff" stroke="#4ea8de" stroke-opacity="0.6"/>
<text x="248" y="420" font-size="12.5" fill="#7d99b4">输入消息，Ctrl+Enter 发送…</text>
<rect x="728" y="400" width="52" height="30" rx="15" fill="#38a3e8"/>
<text x="754" y="420" text-anchor="middle" font-size="12.5" font-weight="600" fill="#ffffff">发送</text>
<rect x="230" y="466" width="86" height="30" rx="15" fill="#38a3e8"/>
<text x="273" y="486" text-anchor="middle" font-size="12" font-weight="600" fill="#ffffff">主按钮</text>
<rect x="326" y="466" width="86" height="30" rx="15" fill="#ffffff" stroke="#4ea8de" stroke-opacity="0.6"/>
<text x="369" y="486" text-anchor="middle" font-size="12" fill="#1d3550">次按钮</text>
<svg x="200" y="0" width="120" height="96" viewBox="0 0 170 130" overflow="visible"><svg viewBox="0 0 170 130" xmlns="http://www.w3.org/2000/svg" aria-hidden="true">
  <path d="M28 26l7 18 18 8-18 8-7 18-7-18-18-8 18-8z" fill="#4ea8de"/>
  <path d="M76 10l5 13 13 6-13 6-5 13-5-13-13-6 13-6z" fill="#8fd0f2"/>
  <path d="M120 34l4 10 10 5-10 5-4 10-4-10-10-5 10-5z" fill="#e8f4fb"/>
  <circle cx="56" cy="76" r="4" fill="#4ea8de"/>
  <circle cx="96" cy="96" r="3" fill="#8fd0f2"/>
  <circle cx="136" cy="66" r="2.6" fill="#e8f4fb"/>
</svg></svg>
<svg x="340" y="60" width="22" height="22" viewBox="0 0 24 24" opacity="0.8" overflow="visible"><svg viewBox="0 0 20 20" xmlns="http://www.w3.org/2000/svg" aria-hidden="true">
  <path d="M10 2l2.2 5.8 5.8 2.2-5.8 2.2L10 18l-2.2-5.8L2 10l5.8-2.2z" fill="#eaf6fd"/>
  <circle cx="10" cy="10" r="1.6" fill="#4ea8de" opacity="0.7"/>
</svg></svg>
<svg x="560" y="150" width="16" height="16" viewBox="0 0 24 24" opacity="0.6" overflow="visible"><svg viewBox="0 0 20 20" xmlns="http://www.w3.org/2000/svg" aria-hidden="true">
  <path d="M10 2l2.2 5.8 5.8 2.2-5.8 2.2L10 18l-2.2-5.8L2 10l5.8-2.2z" fill="#eaf6fd"/>
  <circle cx="10" cy="10" r="1.6" fill="#4ea8de" opacity="0.7"/>
</svg></svg>
<svg x="860" y="90" width="26" height="26" viewBox="0 0 24 24" opacity="0.7" overflow="visible"><svg viewBox="0 0 20 20" xmlns="http://www.w3.org/2000/svg" aria-hidden="true">
  <path d="M10 2l2.2 5.8 5.8 2.2-5.8 2.2L10 18l-2.2-5.8L2 10l5.8-2.2z" fill="#eaf6fd"/>
  <circle cx="10" cy="10" r="1.6" fill="#4ea8de" opacity="0.7"/>
</svg></svg>
<svg x="700" y="360" width="18" height="18" viewBox="0 0 24 24" opacity="0.55" overflow="visible"><svg viewBox="0 0 20 20" xmlns="http://www.w3.org/2000/svg" aria-hidden="true">
  <path d="M10 2l2.2 5.8 5.8 2.2-5.8 2.2L10 18l-2.2-5.8L2 10l5.8-2.2z" fill="#eaf6fd"/>
  <circle cx="10" cy="10" r="1.6" fill="#4ea8de" opacity="0.7"/>
</svg></svg>
<text x="960" y="526" text-anchor="end" font-size="11" fill="#7d99b4">凛霜 · 苍雪剑姬 · 0928OYX · CC BY-NC-SA 4.0 · 免费皮肤</text>
</svg>